<svg xmlns="http://www.w3.org/2000/svg" fill="none" viewBox="0 0 200 200" height="1000" width="1000"><g id="Astronaut--cryptocurrency-crypto-web 3.0-metaverse-bitcoin-ethereum"><g id="Group"><path id="Vector" fill="#ffffff" d="M18.522 188.136C18.1637 188.081 17.8311 187.917 17.5689 187.667C17.3067 187.416 17.1277 187.091 17.056 186.736C16.672 184.663 20.838 175.647 20.838 175.647C20.838 175.647 18.609 173.31 19.777 168.919C20.256 167.119 23.862 159.464 26.358 156.866C28.032 155.123 31.058 153.428 33.558 154.021C33.658 154.044 32.944 154.697 37.947 148.785C43.447 142.285 56.929 131.225 68.303 126.043C80.239 120.605 100.362 116.143 118.203 119.308C141.983 123.533 157.427 137.272 167.345 147.822C171.313 147.767 174.73 150.898 177.345 153.881C181.471 158.581 185.239 164.123 185.499 170.372C185.684 172.172 185.223 173.98 184.199 175.472C185.384 178.326 186.394 181.249 187.224 184.225C187.301 184.522 187.317 184.832 187.272 185.136C187.226 185.44 187.12 185.732 186.959 185.993C186.798 186.255 186.586 186.482 186.336 186.66C186.086 186.838 185.802 186.964 185.502 187.03C172.719 189.863 106.534 202.785 18.522 188.136Z"></path><path id="Vector_2" fill="#000000" d="M177.365 160.046C176.875 160.433 183.76 169.772 179.881 170.17C179.824 168.863 179.483 167.585 178.881 166.424C177.77 164.113 172.981 157.916 171.837 156.65C170.826 155.419 169.452 154.539 167.911 154.136C168.577 150.376 173.811 155.915 174.224 155.336C174.4 155.073 170.758 150.813 168.292 151.717C166.892 152.202 165.992 154.086 166.765 156.259C168 159.748 175.957 169.395 176.465 169.898C177.777 171.129 179.174 171.976 180.854 171.373C185.711 168.885 177.752 159.735 177.365 160.046ZM174.065 164.685C172.565 162.768 168.098 157.325 167.874 154.895C170.414 155.733 172.02 158.627 174.627 162.056C176.427 164.497 178.671 167.092 179.055 170.038C177.274 169.376 175.467 166.4 174.07 164.685H174.065Z"></path><path id="Vector_3" fill="#000000" d="M154.012 176.991C153.485 167.491 138.09 162.45 137.898 163.904C137.777 164.411 143.408 165.566 148.48 170.637C153.318 175.543 152.234 179.922 149.98 180.683C150.499 177.841 148.694 175.183 146.456 173.375C143.328 170.836 139.111 169.834 135.185 168.875C129.734 167.592 121.499 166.144 118.126 170.737C115.985 161.827 133.253 164.317 133.397 163.697C133.748 162.539 116.839 159.774 115.851 168.539C115.69 169.987 115.96 171.45 116.628 172.745C117.296 174.039 118.331 175.108 119.604 175.816C122.857 177.816 126.763 177.34 130.353 177.8C139.582 178.893 142.813 182.691 148.11 183.019C152.071 183.21 154.151 180.748 154.012 176.991ZM135.952 176.719C127.403 174.387 121.861 176.648 118.812 172.24C120.889 167.713 130.199 169.516 134.773 170.604C139.603 171.763 146.419 173.345 148.391 178.174C148.766 179.027 148.865 179.976 148.675 180.889C145.072 180.953 141.892 178.338 135.952 176.719V176.719Z"></path><path id="Vector_4" fill="#000000" d="M112.567 141.231C110.281 137.113 103.318 137.689 103.453 138.379C103.477 138.649 104.811 138.612 106.74 139.2C108.96 139.9 111.82 141.467 111.22 143.73C110.793 145.472 111.01 144.049 107.264 142.513C102.039 140.34 93.856 141.151 91.421 144.831C90.283 142.663 91.983 140.831 94.159 139.752C95.939 138.934 98.759 137.999 96.267 138.116C87.418 138.635 87.634 147.323 93.635 148.469C95.89 148.9 98.263 148.222 101.902 148.223C104.564 148.177 108.402 149.204 111.019 147.033C113.12 145.347 113.548 142.94 112.567 141.231ZM101.9 146.442C96.921 146.442 94.1 147.672 92.047 145.665C94.042 142.788 103.147 140.87 110.205 145.381C108.125 147.367 105.091 146.421 101.9 146.442Z"></path><path id="Vector_5" fill="#000000" d="M27.3051 165.212C25.2341 169.047 23.7931 172.305 23.3581 172.167C22.9581 172.038 23.7581 168.434 25.9031 164.454C28.0481 160.474 30.6431 157.837 30.9721 158.107C31.3231 158.4 29.3771 161.377 27.3051 165.212Z"></path><path id="Vector_6" fill="#000000" d="M77.6 167.4C72.719 161.16 61.21 167.147 61.739 167.977C62.007 168.454 69.213 165.312 73.794 167.03C76.406 168.239 76.471 169.568 75.361 171.03C75.048 171.443 73.942 170.274 69.861 170.321C62.714 170.379 55.061 174.46 51.416 180.211C49.539 179.359 49.242 177.994 50.096 176.111C51.814 172.323 56.677 169.719 56.439 169.24C56.085 168.406 46.76 173.016 47.639 178.794C48.352 182.135 52.008 183.164 55.722 182.63C59.617 182.033 82.209 174.641 77.6 167.4ZM52.694 180.569C57.572 174.649 66.664 170.747 74.226 172.192C70.5 175.437 57.356 181.24 52.694 180.569Z"></path><path id="Vector_7" fill="#000000" d="M137.328 153.683C135.765 152.063 136.119 150.454 137.482 150.157C139.46 150.059 141.415 150.609 143.052 151.723C144.752 152.823 148.217 155.342 142.568 152.592C139.358 151.029 137.363 151.541 137.683 151.528C137.683 151.528 137.676 151.514 137.69 151.593C137.628 153.375 147.414 158.347 146.027 155.002C145.385 153.657 145.993 154.132 146.488 154.708C147.595 155.994 146.406 159.328 139.434 155.163C138.663 154.776 137.953 154.277 137.328 153.683V153.683Z"></path><path id="Vector_8" fill="#000000" d="M62.8532 149.838C60.3232 150.031 55.9822 151.68 57.3682 153.785C58.5762 155.563 61.9842 154.969 64.1112 154.494C70.0872 153.063 69.8852 149.406 62.8532 149.838ZM67.0872 152.171C64.9252 153.686 55.5312 154.362 59.7002 152.016C63.8062 149.705 69.5002 150.478 67.0872 152.171Z"></path><path id="Vector_9" fill="#000000" d="M90.443 160.466C86.564 163.975 83.466 162.166 83.992 159.993C84.192 159.157 85.405 157.864 84.813 159.393C84.7078 159.577 84.6478 159.784 84.6381 159.995C84.6284 160.207 84.6691 160.418 84.757 160.611C84.845 160.804 84.9775 160.974 85.1437 161.105C85.3099 161.237 85.505 161.328 85.713 161.369C87.042 161.682 89.95 159.699 90.133 158.764C90.254 157.815 90.261 156.953 87.475 157.857C82.47 159.48 86.875 157.017 88.475 156.567C89.933 156.267 91.138 156.456 91.352 157.934C91.4339 158.399 91.3931 158.877 91.2337 159.321C91.0743 159.765 90.8017 160.16 90.443 160.466V160.466Z"></path><path id="Vector_10" fill="#000000" d="M35.6602 180.38C34.0042 179.056 36.0722 176.593 38.2782 175.68C40.0222 174.96 40.6352 175.724 40.5062 175.802C39.845 175.849 39.2086 176.073 38.6642 176.451C36.2052 177.983 35.5642 179.999 37.2562 179.421C38.3004 178.986 39.2345 178.324 39.9902 177.482C40.2261 177.279 40.3998 177.014 40.4912 176.717C40.5825 176.419 40.5877 176.102 40.5062 175.802C40.6062 175.532 41.6972 176.402 40.6802 178.002C39.6632 179.602 37.1172 181.546 35.6602 180.38Z"></path><path id="Vector_11" fill="#000000" d="M167.773 181.231C167.573 181.568 167.255 181.818 166.882 181.936C166.508 182.053 166.104 182.029 165.747 181.867C163.382 180.975 162.038 177.601 162.695 176.845C162.94 176.509 162.911 176.993 163.009 177.287C163.471 178.406 164.209 179.39 165.153 180.148C166.653 181.392 167.472 180.765 166.003 178.676C165.508 177.976 164.255 176.535 163.356 176.594C163.082 176.611 162.934 176.782 162.856 176.737C162.793 176.728 162.756 176.389 163.205 176.144C164.823 175.269 168.841 179.032 167.773 181.231Z"></path><path id="Vector_12" fill="#000000" d="M110.615 173.8C109.638 171.118 109.856 169.318 109.992 169.327C110.372 169.282 111.092 177.444 118.621 180.427C121.915 181.734 125.436 181.737 128.962 182.403C131.713 182.923 133.267 183.778 133.194 183.924C133.117 184.112 131.519 183.6 128.826 183.331C123.539 182.805 114.123 183.422 110.615 173.8Z"></path><path id="Vector_13" fill="#000000" d="M94.616 152.248C89.006 151.622 86.037 147.988 86.403 147.705C86.737 147.405 88.933 150.38 94.756 151.037C99.189 151.537 103.956 150.645 104.022 151.137C104.074 151.536 98.649 152.7 94.616 152.248Z"></path><path id="Vector_14" fill="#000000" d="M80.7221 175.557C76.9061 180.019 69.114 183.508 68.84 182.863C68.66 182.438 75.7191 179.04 79.5401 174.556C81.9871 171.684 82.234 169.107 80.962 166.288C80.162 164.507 78.912 162.907 79.115 162.735C79.382 162.507 86.7271 168.536 80.7221 175.557Z"></path><path id="Vector_15" fill="#000000" d="M139.237 158.766C136.015 157.157 134.076 154.514 134.359 154.266C134.642 154.018 136.659 156.107 139.782 157.675C142.905 159.243 145.79 159.543 145.774 159.904C145.756 160.325 142.466 160.379 139.237 158.766Z"></path><path id="Vector_16" fill="#000000" d="M186.978 180C185.016 174.215 185.11 176.107 185.846 174.511C189.294 166.654 178.37 148.082 167.346 146.67C131.896 104.336 67.1511 108.37 33.5871 152.963C26.6741 151.2 18.6401 164.963 18.3991 171.217C18.3807 172.85 18.8664 174.45 19.7901 175.797C19.0941 177.397 18.4358 179.013 17.8151 180.646C16.6371 183.746 16.3381 186.47 16.9061 186.63C17.8921 186.911 20.0151 180.687 21.5261 177.168C25.8911 179.027 31.5111 171.852 30.6731 171.292C30.2661 171.02 24.8881 176.628 22.4301 175.276C17.4301 172.867 24.0631 160.709 27.4591 157.49C29.3591 155.645 32.9931 153.984 34.0591 155.615C35.7411 157.493 33.9921 164.975 34.4991 165.172C35.0471 165.401 36.5861 161.533 36.6721 158.29C61.2091 125.739 103.319 115.039 138.789 131.422C145.838 134.662 147.514 136.022 147.611 135.862C147.662 135.783 144.361 133.745 144.28 133.698C109.644 113.42 63.6401 121.53 36.5161 156.186C36.3506 155.207 35.8401 154.321 35.0771 153.686C68.1031 112.653 128.701 106.516 165.148 146.658C164.392 146.734 163.658 146.962 162.992 147.327C162.325 147.692 161.738 148.187 161.266 148.783C157.404 153.844 165.319 163.988 165.895 163.575C166.473 163.186 160.031 153.588 162.924 150.061C164.001 148.688 165.965 148.561 167.673 148.887C169.875 149.399 171.927 150.418 173.666 151.863C178.795 155.944 183.598 163.045 184.338 170.601C184.695 174.237 182.528 176.059 179.799 175.869C176.857 175.649 174.454 173.049 172.34 171.046C168.859 167.692 164.9 164.46 171.233 172.075C173.568 174.805 176.016 177.596 179.603 177.954C181.01 178.113 182.43 177.796 183.636 177.054C184.097 178.254 184.535 179.463 184.949 180.682C187.7 188.738 188.84 185.453 186.978 180Z"></path></g><g id="Group_2"><path id="Vector_17" fill="#ffffff" d="M55.7999 125.4C57.5539 123.682 60.4869 119.851 60.0799 117.447C59.6299 114.794 51.5109 106.854 43.1909 105.587C39.3759 100.671 29.7289 94.6339 26.5599 93.3659C23.7279 92.2339 19.8429 91.7959 17.5889 93.2819C13.3479 96.0819 14.9389 105.688 14.9889 107.854C15.1129 113.834 19.8359 121.844 19.6679 123.549C19.5399 124.856 17.9069 124.781 18.9439 129.612C19.5951 132.795 20.4298 135.939 21.4439 139.026C22.0019 140.671 22.7799 142.446 24.3649 143.156C26.6749 144.188 31.2749 142.908 33.6389 141.62C34.4529 141.177 34.8609 141.114 35.5389 141.936C36.8719 143.562 38.4739 146.774 41.2799 146.554C42.0799 146.491 42.2799 146.061 42.2409 145.272C42.1677 143.576 41.7174 141.919 40.9229 140.419C41.8849 140.036 42.7539 139.452 43.4719 138.706C44.5109 139.75 47.9059 142.906 49.4029 143.013C50.8999 143.12 51.9299 141.371 51.7779 139.888C51.4561 138.428 50.8521 137.044 49.9999 135.816C49.3999 134.706 49.6419 134.765 52.0419 131.548C53.8079 133.922 54.5489 135.109 55.6419 135.696C56.0526 135.944 56.5321 136.054 57.01 136.011C57.488 135.967 57.9393 135.771 58.2979 135.452C59.6409 133.997 57.8979 131.169 55.4799 127.217C55.0219 126.472 55.0349 126.142 55.7999 125.4Z"></path><path id="Vector_18" fill="#92fcff" d="M26.0201 116.042C25.8353 117.677 26.2082 119.326 27.0784 120.723C27.9486 122.119 29.265 123.18 30.8141 123.735C31.8651 124.117 32.9995 124.208 34.098 123.999C35.1965 123.79 36.2184 123.289 37.0562 122.549C37.894 121.808 38.5167 120.856 38.8588 119.791C39.2009 118.727 39.2497 117.59 39.0001 116.5C37.6061 109.928 27.3751 108.808 26.0201 116.042Z"></path><path id="Vector_19" fill="#000000" d="M37.122 121.1C36.1594 122.282 34.7706 123.039 33.2553 123.206C31.7399 123.373 30.2195 122.938 29.022 121.995C26.352 120.066 26.473 117.295 26.064 117.318C25.783 117.331 25.564 120.658 28.231 122.974C29.2358 123.883 30.4806 124.484 31.8172 124.705C33.1539 124.927 34.526 124.76 35.7704 124.224C37.0148 123.688 38.0789 122.806 38.8362 121.682C39.5935 120.559 40.012 119.241 40.042 117.887C40.085 113.476 36.112 109.629 31.669 110.338C28.456 110.806 26.169 113.126 25.92 115.203C25.759 116.291 25.946 116.871 26.052 116.869C26.189 116.874 26.252 116.291 26.589 115.382C27.541 112.644 31.699 110.825 34.779 112.317C37.986 113.831 39.441 118.2 37.122 121.1Z"></path><path id="Vector_20" fill="#000000" d="M34.264 128.068C42.964 127.292 46.84 117.148 40.825 110.381C39.0629 108.377 36.6142 107.106 33.9613 106.818C31.3085 106.53 28.6441 107.246 26.493 108.825C25.8331 109.223 25.2766 109.771 24.869 110.425C24.937 110.496 25.5 109.91 26.726 109.183C35.939 103.7 45 112.8 42.087 120.939C39.938 127.133 31.626 129.373 26.175 124.283C22.73 121.107 22.89 117.036 22.593 117.06C22.393 117.06 22.338 121.553 25.636 124.842C26.757 125.969 28.1083 126.841 29.5974 127.398C31.0865 127.955 32.6784 128.183 34.264 128.068V128.068Z"></path><path id="Vector_21" fill="#000000" d="M58.544 113.421C54.4339 109.184 49.2642 106.125 43.572 104.561C38.682 99.4385 32.8768 95.2763 26.456 92.2889C10.256 85.8299 10.819 107.166 18.34 122.704C17.4843 129.103 18.5086 135.613 21.288 141.44C21.5419 142.209 21.9993 142.895 22.6117 143.424C23.2241 143.954 23.9685 144.308 24.766 144.449C27.845 145.11 32.081 143.767 34.912 142.136C35.512 142.885 37.427 145.17 38.084 145.821C41.099 148.811 43.796 146.107 42.701 143.021C41.501 139.621 40.543 141.681 43.885 139.721C45.624 141.626 47.667 144.349 50.078 143.595C50.6862 143.386 51.2192 143.002 51.6105 142.491C52.0018 141.981 52.234 141.367 52.278 140.725C52.45 138.982 51.499 137.125 50.521 135.314C50.052 134.442 50.283 135.464 52.06 132.614C54.071 135.058 54.983 136.249 56.423 136.553C57.0331 136.657 57.6598 136.517 58.1676 136.163C58.6753 135.809 59.0232 135.27 59.136 134.661C59.529 133.037 58.515 131.15 57.536 129.461C55.226 125.501 55.129 128.384 58.925 123.178C62.777 117.667 61.067 116.027 58.544 113.421ZM15.8 107.259C17.3379 106.667 18.819 105.936 20.225 105.077C21.659 104.169 22.425 103.436 22.318 103.277C22.159 103.029 20.885 103.817 15.609 105.832C14.942 100.06 15.682 92.9429 21.483 93.2249C24.235 93.3379 27.515 94.9979 29.883 96.4029C23.338 102.338 23.107 102.477 23.211 102.641C23.315 102.805 24.479 102.301 26.156 101.154C27.892 99.9249 29.5542 98.595 31.134 97.1709C44.005 105.316 51.163 116.658 52.27 122.871C50.67 124.079 46.842 127.233 45.31 128.62C41.733 126.503 38.624 129.611 38.969 132.767C37.155 133.613 33.128 135.708 31.369 136.726C24.97 131.985 17.84 120.728 15.8 107.259ZM23.738 141.537C22.676 140.003 19.907 133.223 19.726 125.355C22.878 130.955 28.467 138.226 34.774 140.39C32 141.825 25.353 143.869 23.738 141.537ZM40.873 141.777C41.278 142.726 41.914 144.048 41.526 145.001C40.612 147.246 38.298 143.995 35.781 141.601C37.219 140.67 36.204 140.953 38.33 141.181C41.08 141.457 40.3 140.424 40.873 141.777V141.777ZM38.494 139.652C36.4056 139.366 34.3989 138.651 32.6 137.552C34.9658 136.644 37.215 135.457 39.3 134.017C39.917 135.503 41.274 136.861 42.918 138.66C41.5791 139.434 40.0354 139.78 38.494 139.652V139.652ZM50.565 140.522C50.408 141.89 49.319 142.55 47.745 141.215C46.3724 139.944 45.0803 138.589 43.876 137.158C42.004 135.128 38.743 132.47 41.445 129.879C41.8303 129.511 42.3184 129.27 42.8442 129.187C43.3701 129.103 43.9089 129.182 44.389 129.412C46.487 130.588 50.808 138.37 50.565 140.522V140.522ZM46.307 129.37C48.5562 127.971 50.6262 126.303 52.471 124.402C52.6165 126.058 52.4331 127.726 51.9312 129.311C51.4294 130.896 50.6191 132.366 49.547 133.637C48.629 132.099 47.5423 130.667 46.307 129.37V129.37ZM57.419 132.207C58.353 134.418 57.451 135.359 56.654 135.22C55.694 135.074 54.91 133.968 52.567 131.72C53.0333 130.83 53.3989 129.891 53.657 128.92C54.096 128.52 54.563 128.081 55.047 127.607C55.9566 129.076 56.7497 130.614 57.419 132.207V132.207ZM54.1 126.315C54.621 119.725 49.788 111.979 45.672 106.961C52.886 110.292 59.072 116.292 59.096 117.82C58.847 120.591 55.928 124.167 54.1 126.315Z"></path></g><g id="Group_3"><path id="Vector_22" fill="#92fcff" d="M129.417 68.0411C132.344 64.6851 132.33 65.2731 134.836 66.3301C143.978 70.1851 174.411 85.7751 174.511 85.8301C179.879 88.9201 182.274 89.2221 179.945 94.7211C177.545 100.393 171.085 112.973 167.278 117.677C165.505 119.677 163.944 121.855 162.62 124.177C160.572 128.058 155.12 130.783 156.783 131.494C163.633 134.417 165.19 137.344 167.017 143.481C167.112 143.8 167.081 143.934 166.75 144.125C165.562 144.813 162.75 146.219 161.588 145.478C160.626 144.863 160.352 142.69 158.455 140.053C157.351 138.623 155.883 137.514 154.205 136.844C152.526 136.173 150.699 135.965 148.913 136.24C145.613 136.976 147.164 136.968 114.913 154.706C105.956 159.632 103.713 158.624 101.238 163.629C99.273 167.601 99.211 172.173 96.351 173.222C95.192 173.647 92.577 173.443 91.551 172.387C89.8 170.587 91.467 164.247 92.193 161.838C92.999 159.165 92.387 159.916 94.951 157.602C96.939 155.808 94.406 154.457 63.958 133.037C63.5092 132.798 62.9973 132.705 62.493 132.769C58.859 140.727 63.869 146.251 56.449 145.529C55.021 145.391 54.631 145.096 54.149 144.029C50.655 136.244 54.179 126.498 62.949 121.829C67.349 119.487 57.316 125.158 100.362 102.823C111.742 96.9251 115.051 84.5121 129.417 68.0411Z"></path><path id="Vector_23" fill="#000000" d="M179.183 87.6369C172.131 83.0299 163.206 79.4829 155.539 75.1169C149.623 71.6449 143.078 69.0389 136.854 65.7319C130.648 62.4319 130.612 64.1729 113.585 87.9319C104.575 100.545 102.575 100.057 86.4849 108.543C63.1139 120.7 58.6149 121.991 56.9999 125.4C51.3189 131.853 50.8639 141.971 53.3999 145.555C54.3739 146.873 55.7739 147.117 57.4099 146.955C63.9609 146.176 60.2289 143.05 62.9319 133.896C70.1939 138.958 61.2269 131.796 94.2919 156.696C90.8699 159.27 89.8579 164.139 89.4859 168.396C89.3429 170.876 89.4859 173.287 92.6259 174.34C95.2739 175.264 98.2129 174.15 99.1369 172C99.9299 170.155 100.652 164.2 104.848 160.406C107.178 159.785 109.427 158.892 111.548 157.746C113.2 156.916 136.573 144.081 148.118 137.174C149.362 136.949 150.64 136.978 151.873 137.259C153.106 137.539 154.27 138.066 155.294 138.808C160.576 142.678 158.294 149.456 165.728 146.308C167.589 145.521 168.463 144.708 167.928 142.618C166.514 137.332 163.158 132.718 157.881 130.88C166.647 123.312 180.566 96.9629 182.088 92.1489C182.862 89.6599 180.674 88.6699 179.183 87.6369ZM59.4659 141.81C59.3019 144.26 59.5249 144.317 57.1659 144.54C56.3919 144.612 55.8139 144.611 55.3659 144.053C53.9399 142.038 53.8659 134.442 57.1579 128.807C58.4153 130.34 59.8691 131.7 61.4819 132.853C60.3183 135.706 59.6371 138.733 59.4659 141.81V141.81ZM98.7299 166.038C97.5569 168.831 97.2359 170.538 96.9939 171.017C96.3559 172.507 93.2339 172.717 92.1809 171.217C91.4109 170.323 91.5949 161.056 95.7419 157.754C97.4177 158.985 99.3211 159.871 101.342 160.361C103.266 160.745 101.156 160.2 98.7299 166.038ZM162.746 137.076C164.069 139.075 165.037 141.288 165.606 143.617C164.904 143.997 164.167 144.309 163.406 144.549C160.551 145.195 162.322 140.836 156.541 136.949C150.96 133.376 148.86 137.43 156.298 132.133C158.9 133.087 161.149 134.811 162.746 137.076V137.076ZM180.135 91.5649C179.184 94.8139 165.554 122.679 156.235 130.038C152.235 133.258 114.941 153.629 110.564 155.793C106.116 157.988 104.114 158.631 101.812 158.154C98.5119 157.47 99.4169 157.414 71.8959 136.978C67.4829 133.786 58.4479 128.706 59.1439 126.638C59.9789 124.238 66.9589 121.458 69.2269 120.32C110.911 98.6199 105.262 104.264 122.027 80.0199C123.685 77.6329 131.374 66.4259 133.639 66.8329C134.769 67.0329 173.505 86.6559 176.112 88.1779C180.224 90.6559 180.371 90.7809 180.135 91.5649V91.5649Z"></path></g><g id="Group_4"><path id="Vector_24" fill="#ffffff" d="M169.565 79.9081C169.628 75.5827 168.805 71.2903 167.147 67.2948C165.489 63.2993 163.031 59.6853 159.924 56.6751C149.262 46.0881 132.474 52.8941 132.474 52.8941L130.885 54.7841C130.885 54.7841 129.902 52.8941 125.743 53.8021C121.584 54.7101 115.179 64.4281 114.418 67.4181C113.359 71.5771 116.366 75.5051 116.366 75.5051C116.366 75.5051 116.031 75.3791 114.384 78.3981C112.737 81.4171 115.448 90.1681 115.448 90.1681C115.448 90.1681 110.648 82.7221 110.575 77.2311C110.554 75.5951 110.432 70.1311 109.161 69.1101C108.874 68.6171 107.284 67.5401 108.029 64.0311C108.723 60.6311 111.896 60.5261 113.163 58.7531C113.61 58.0197 113.775 57.1489 113.628 56.3026C113.481 55.4564 113.031 54.6925 112.363 54.1531C107.663 50.5811 103.639 57.5531 103.427 57.2481C102.123 55.2603 100.531 53.4774 98.702 51.9581C94.362 48.6931 90.596 49.6031 89.671 51.2951C88.977 52.5291 89.947 53.7881 90.693 55.0051C86.535 54.4691 82.058 55.5191 83.677 58.7051C84.183 59.7051 85.605 59.8481 88.916 61.3791C85.946 62.0671 82.816 62.5281 83.179 64.7581C83.756 67.8371 88.013 66.3771 91.872 68.7161C92.5947 69.0585 93.1873 69.6254 93.5613 70.3323C93.9353 71.0391 94.0706 71.848 93.947 72.6381C93.53 75.3981 92.588 76.7201 95.061 79.8081C97.0309 82.2062 98.3959 85.0425 99.041 88.0781C99.453 90.9601 103.674 98.0631 103.674 98.0631L97.188 102.833L90.488 101.077C90.488 101.077 91.95 93.2911 89.894 89.3901C87.838 85.4891 86.16 83.2641 80.748 82.4671C75.336 81.6701 72.861 82.0471 72.903 86.1171C72.945 90.1871 73.658 105.164 73.742 108.017C73.826 110.87 78.021 111.835 79.699 111.917C86.988 112.282 77.655 110.661 77.445 117.387C77.292 122.294 76.695 131.944 76.695 131.944C73.8198 132.025 71.041 132.999 68.744 134.73C64.919 137.623 64.429 142.576 66.344 144.636C68.259 146.696 84.344 146.936 84.344 146.936C84.344 146.936 90.13 147.426 91.749 145.072C93.368 142.718 93.317 135.363 93.317 135.363C93.317 135.363 99.692 141.934 104.743 143.013C109.794 144.092 118.767 139.777 122.935 137.276C127.103 134.775 144.02 120.114 144.02 120.114C144.02 120.114 154.563 120.947 159.564 118.446C164.565 115.945 167.655 110.846 167.606 106.58C167.577 104.012 167.314 101.451 166.821 98.9301C173.16 91.6281 172.031 81.7001 169.565 79.9081Z"></path><path id="Vector_25" fill="#92fcff" d="M125.783 60.2001C123.723 61.7954 121.777 63.533 119.96 65.4001C118.225 67.4786 117.146 70.0247 116.859 72.7166C116.571 75.4085 117.088 78.1252 118.345 80.5231C118.856 81.4581 119.086 82.6601 119.689 83.5391C123.364 88.8921 127.868 93.9491 134.289 94.9391C139.209 95.6961 145.101 94.1471 148.236 90.2801C149.209 89.0801 149.836 87.9101 150.852 86.7451C154.72 82.3031 155.564 75.4911 149.71 67.1081C147.872 64.7564 145.739 62.6514 143.363 60.8451C138.463 56.6641 130.395 56.3451 129.05 56.8571C127.4 57.4731 127.127 59.0681 125.783 60.2001Z"></path><path id="Vector_26" fill="#000000" d="M97.8101 132.6C103.788 141.131 111.91 137.672 112.09 138.287C112.502 138.994 102.674 142.812 96.3001 133.652C90.2601 124.971 95.5811 116.336 96.2481 116.933C96.7641 117.232 92.0501 124.386 97.8101 132.6Z"></path><path id="Vector_27" fill="#000000" d="M170.591 80.6631C171.916 78.0681 169.34 68.0051 167.472 64.6831C161.2 53.5321 151.4 49.2001 138.851 50.3001C134.079 51.1001 132.341 51.3901 130.365 53.4261C125.089 50.9501 120.289 55.4161 116.791 60.1051C113.054 65.1051 111.145 70.6261 114.96 75.5971C112.552 77.9131 112.652 80.9041 113.344 84.2321C110.024 74.5401 112.402 72.9871 110.944 69.6141C110.244 67.9641 107.769 64.3841 110.775 62.1451C111.921 61.2791 113.959 60.5811 114.684 58.5771C116.346 53.7371 109.26 48.3501 103.838 56.0061C97.033 43.8061 86.238 47.7331 87.863 53.2981C82.071 52.5701 79.155 58.8151 83.924 61.1801C83.2998 61.3759 82.7409 61.7381 82.3071 62.2277C81.8733 62.7173 81.5811 63.3159 81.462 63.9591C81.098 69.6681 88.713 68.8691 90.962 70.2211C94.018 71.9981 90.526 74.2891 91.889 77.4021C92.951 79.9471 94.937 79.5891 97.14 85.4251C98.632 89.3981 99.111 92.4091 102.553 97.6381C100.424 98.5162 98.4657 99.7611 96.767 101.316C94.8507 100.694 92.8997 100.185 90.924 99.7901C92.753 93.3141 91.072 83.9901 83.635 81.7401C80.919 80.9641 74.52 79.9011 72.603 82.0401C71.303 83.4921 71.513 83.7401 71.676 94.0561C71.789 101.161 72.098 104.249 72.399 108.156C72.914 111.331 75.228 112.573 78.432 112.956C72.775 118.547 75.645 131.716 74.654 131.746C67.496 132.01 63.282 137.494 63.99 142.704C64.554 148.178 73.543 147.534 78.49 147.99C92.34 149.122 94.722 146.836 94.543 138.128C94.524 137.233 94.195 137.753 97.127 140.158C101.686 143.858 107.045 145.603 112.605 143.614C120.405 140.824 132.628 133.333 144.594 121.303C157.174 122.439 168.369 118.672 168.712 106.403C168.702 103.817 168.438 101.238 167.924 98.7031C171.786 93.4931 174.568 85.4831 170.591 80.6631ZM130 57.7661C132.7 56.5781 142.822 59.5831 149.533 69.2491C152.133 73.0141 153.741 76.5491 152.15 80.8141C149.985 86.8211 144.993 93.2141 138.664 94.1051C131.23 95.3051 120.231 87.7391 117.788 75.5201C118.288 73.8771 117.869 69.3261 124.098 63.1571C127 60.3131 128.344 59.7341 130 57.7661ZM115.144 69.2001C115.717 64.7261 123.002 53.4551 129.103 54.9001C125.277 59.7231 117.225 63.4941 115.758 73.4521C115.16 72.12 114.947 70.6469 115.144 69.2001V69.2001ZM84.2 56.9891C84.779 55.9961 86.7 55.4101 87.855 55.5731C90.489 56.0261 89.661 56.2361 91.609 57.3211C93.62 58.4211 95.325 59.4211 96.738 60.3641C92.984 63.4851 95.863 63.5841 92.47 62.2151C91.445 61.8251 92.388 62.0881 86.235 59.4811C85.538 59.2859 84.8958 58.9316 84.359 58.4461C84.064 57.8941 83.915 57.5001 84.2 56.9891ZM94.883 77.7241C92.928 75.5651 94.644 74.7311 94.689 72.1991C98.41 72.9311 101.495 71.5231 101.373 71.1581C101.236 70.7201 98.225 71.6741 94.473 70.6931C93.424 67.4351 88.526 66.6431 85.387 66.1161C82.431 64.7851 83.893 62.6751 87.887 62.7071C93.367 64.7791 93.669 64.3741 93.506 64.8281C93.161 65.7921 93.131 66.4391 93.306 66.5041C93.694 66.6411 94.721 64.4951 96.65 62.4041C98.55 60.2851 100.587 59.0601 100.413 58.6861C100.333 58.5161 99.691 58.6061 98.764 59.0421C97.495 59.6331 99.423 59.5421 92.78 55.4021C87.48 51.9221 91.268 49.4681 95.292 50.8551C98.447 51.9381 100.933 54.9281 102.838 57.6551C101.415 60.4731 101.338 62.7291 101.638 62.7221C101.889 62.7411 102.169 60.4401 104.258 57.5571C108.009 52.4471 111.582 53.4571 112.686 55.7101C114.375 59.0691 109.863 59.3101 108.141 61.9641C107.657 62.6795 107.341 63.4944 107.215 64.3487C107.089 65.2029 107.157 66.0745 107.413 66.8991C107.152 67.4969 106.748 68.0209 106.235 68.4241C104.604 69.6561 101.481 70.6761 101.611 71.0771C101.726 71.4401 106.443 70.5421 108.047 68.5281C108.932 70.3991 109.435 70.1181 109.333 73.3211C106.5 77.1301 99.014 79.2511 94.883 77.7241ZM102.545 79.3731C105.136 78.7724 107.495 77.426 109.33 75.5001C109.397 77.7032 109.778 79.8854 110.461 81.9811C106.94 83.6658 103.233 84.9308 99.416 85.7501C96.438 76.1181 94.208 81.5811 102.545 79.3731ZM99.645 86.5001C103.552 86.031 107.322 84.7671 110.722 82.7861C111.002 83.6251 111.356 84.5861 111.713 85.4511C108.127 87.1757 104.35 88.4733 100.461 89.3171C100.193 88.4251 99.934 87.4821 99.642 86.5001H99.645ZM91.908 141.638C91.308 147.351 83.258 145.56 73.308 145.327C71.037 145.249 66.78 144.911 66.176 142.718C77.565 143.971 88.191 143.623 88.187 143.166C88.183 142.709 79.066 142.718 66.059 141.226C66.0989 140.314 66.2828 139.414 66.604 138.56C68.615 133.734 75.079 132.069 79.754 133.77C82.407 134.736 83.426 136.164 83.608 135.98C83.808 135.812 81.774 132.828 77.419 131.972C77.444 127.526 76.854 119.202 79.514 115.62C80.889 113.769 83.37 112.682 85.507 113.575C91.612 116.129 92.365 137.552 91.905 141.638H91.908ZM134.175 119.519C134.143 119.998 141.758 120.996 142.283 121.059C133.976 128.215 121.957 137.459 111.774 141.248C105.274 143.67 99.199 140.061 94.443 135.017C93.043 102.052 81.323 113.445 75.843 109.563C75.5685 109.381 75.3394 109.139 75.1735 108.854C75.0076 108.57 74.9092 108.251 74.886 107.923C74.586 104.04 74.286 101.101 74.174 94.0061C74.015 83.9411 73.943 84.0681 74.532 83.6761C75.1621 83.3883 75.8472 83.2405 76.54 83.2431C77.135 91.1911 76.852 106.818 77.535 106.802C77.927 106.793 78.605 91.4311 78.016 83.2651C79.6848 83.3827 81.3412 83.6359 82.969 84.0221C90.145 86.0441 91.233 96.8591 88.195 103.522C87.368 105.256 86.731 106.154 86.88 106.281C87.115 106.481 88.916 104.581 90.015 102.246C96.963 103.574 104.415 106.412 109.097 111.829C113.218 116.539 119.797 131.729 121.006 131.022C121.317 130.844 120.372 128.476 118.819 124.647C118.487 123.828 118.343 124.285 121.647 126.247C126.019 128.81 126.13 128.18 122.391 125.18C116.491 120.26 117.291 120.841 115.874 117.946C112.338 110.761 108.741 105.994 99.438 102.278C100.971 101.439 102.378 100.387 103.617 99.1541C104.348 100.141 106.69 102.931 106.982 102.667C107.34 102.355 103.803 98.6151 101.029 91.0951C100.367 89.2221 100.317 90.8431 106.345 88.7951C114.763 85.9451 110.011 84.0331 114.981 91.6581C117.619 95.6751 122.873 101.972 128.814 104.858C131.684 106.229 133.444 106.478 133.474 106.358C133.674 105.758 126.045 104.073 120.045 95.1811C117.816 91.8921 116.112 87.4811 116.631 88.3361C118.997 92.5242 122.532 95.9328 126.803 98.1461C133.033 101.346 141.48 102.052 147.312 98.6321C149.408 97.3396 151.253 95.6773 152.755 93.7261C152.017 96.7861 151.931 100.141 153.863 102.594C149.924 104.783 145.584 106.157 141.103 106.632C137.076 106.995 134.565 106.313 134.477 106.66C134.317 107.012 140.604 109.899 150.304 106.47C150.235 107.219 150.015 107.946 149.658 108.607C148.893 110.056 135.707 109.907 135.684 110.625C135.658 111.491 145.278 111.6 147.709 111.225C148.585 113.024 149.883 114.585 151.492 115.775C153.101 116.965 154.974 117.748 156.951 118.059C148.115 121.073 134.256 118.211 134.172 119.519H134.175ZM158.614 117.4C156.561 117.174 154.586 116.487 152.836 115.391C151.086 114.294 149.607 112.817 148.508 111.068C149.304 110.926 150.052 110.589 150.687 110.088C153.984 113.149 158.355 114.786 162.852 114.645C161.598 115.789 160.166 116.719 158.611 117.4H158.614ZM163.614 113.86C159.106 113.8 154.742 112.261 151.193 109.481C151.508 108.933 151.722 108.333 151.826 107.71C152.373 104.761 150.897 106.701 155.594 104.074C159.003 105.946 163.153 103.988 166.032 100.964C166.578 105.655 166.682 110.364 163.609 113.86H163.614ZM170.75 86.7461C170.23 92.5461 164.029 102.527 158.259 102.285C151.388 101.998 154.97 86.2941 164.112 79.9851C165.424 79.1401 166.358 79.1071 166.351 78.9011C166.421 78.5961 163.717 77.8911 159.126 82.3651C161.372 74.9881 158.403 70.2131 158.208 70.3041C157.445 70.5921 163.338 77.5801 152.728 91.3451C148.521 96.7761 144.598 99.4151 137.413 99.1351C122.772 98.6441 114.483 84.4041 115.463 78.8811C115.697 78.2274 116.103 77.6488 116.638 77.2061C119.97 92.3311 138.682 105.329 150.79 88.0371C156.337 79.9071 156.043 74.9891 151.183 68.0871C145.42 59.9941 136.602 55.8141 131.469 55.9381C131.999 55.2408 132.648 54.6429 133.386 54.1721C135.337 53.8323 137.345 54.0457 139.181 54.7881C151.034 59.0021 157.841 70.1441 158.081 70.0301C159.098 69.7101 151.908 57.4361 139.766 53.1061C138.709 52.7381 138.73 52.8471 139.173 52.7721C153.157 51.5531 162.674 58.0001 166.7 69.1781C167.507 71.5921 168.647 77.1841 168.462 79.0641C168.462 79.1361 167.419 78.7801 167.367 79.0181C167.262 79.3551 171.343 80.5381 170.745 86.7461H170.75Z"></path></g><g id="Group_5"><path id="Vector_28" fill="#92fcff" d="M70.7118 61.7849C69.4028 68.1719 69.4048 68.0589 69.4258 68.1599C69.6258 69.1599 72.6908 65.3419 76.1638 64.9599C74.6939 66.7952 73.5536 68.8717 72.7938 71.0969L77.4938 70.1829C78.8288 69.9229 80.0608 70.3129 79.6328 70.8119C77.3763 72.5145 75.238 74.3684 73.2328 76.3609C64.9168 84.5049 65.2328 85.9509 63.9088 87.7919C63.2326 88.573 62.6006 89.3913 62.0158 90.2429C61.1598 91.7679 60.9088 94.1619 58.9228 93.3949C57.0948 92.6889 53.4418 92.1139 53.3108 89.6339C53.1178 86.0159 58.9358 71.1999 70.7118 61.7849Z"></path><path id="Vector_29" fill="#fdfdfd" d="M48.9218 90.2469C47.7328 87.6399 53.4858 89.6999 53.9998 89.7049C55.5998 89.7139 56.0048 87.7799 58.6528 86.5709C60.0718 85.9229 59.8308 91.2239 60.3598 91.9839C60.5437 92.2079 60.774 92.3894 61.0348 92.5159C62.1911 93.1885 63.2919 93.9523 64.3268 94.7999C64.9578 95.3169 64.7668 95.7509 64.0588 96.1249C61.1808 97.6439 60.0148 97.7939 59.7758 98.0659C59.6438 98.2169 59.7078 98.0999 58.3838 103.157C58.0368 104.484 55.6498 101.403 54.6648 100.285C54.4919 100.015 54.2369 99.8069 53.9372 99.6922C53.6375 99.5776 53.309 99.562 52.9998 99.6479C52.3478 99.7109 48.5868 100.081 48.1708 99.5739C47.4508 98.6979 50.6808 95.2959 50.7328 94.3599C50.7868 93.4609 48.9218 91.0999 48.9218 90.2469Z"></path><path id="Vector_30" fill="#000000" d="M79.9859 70.4589C80.1789 69.9079 75.9229 69.088 73.0389 70.773C73.1089 70.673 77.1849 64.3929 76.9169 64.1729C76.6969 63.6629 71.7599 65.9549 69.6539 68.2289C69.7969 67.8079 71.4539 61.6289 70.9639 61.4749C70.8259 61.2919 59.9639 67.781 53.9839 84.2339C53.4133 85.698 53.0107 87.2221 52.7839 88.7769C50.4529 88.2519 49.1129 87.6059 48.2839 88.9019C47.6259 89.9299 48.1509 90.4619 50.0149 94.5019C47.7519 98.3129 47.1229 98.86 47.7539 99.972C48.4889 101.263 49.5919 100.789 53.7809 100.294L56.6809 103.594C56.8886 103.829 57.1578 104.002 57.4583 104.092C57.7587 104.182 58.0785 104.187 58.3815 104.106C58.6844 104.024 58.9587 103.86 59.1732 103.631C59.3878 103.402 59.5342 103.118 59.5959 102.81L60.4519 98.5L64.4889 96.762C64.7772 96.6377 65.025 96.4352 65.2043 96.1775C65.3836 95.9197 65.4872 95.617 65.5034 95.3034C65.5196 94.9899 65.4478 94.678 65.2961 94.4032C65.1444 94.1283 64.9188 93.9013 64.6449 93.748L61.6999 92.0999C70.0779 77.4299 80.4779 71.0399 79.9859 70.4589ZM63.9299 95.453C58.9609 97.592 59.2159 97.431 59.1789 97.621C58.1519 102.852 58.2499 102.741 57.9489 102.741C57.5999 102.741 54.5909 98.757 54.2269 98.805C49.8669 99.375 49.3269 99.397 49.2209 99.397C48.5749 99.397 49.1339 98.7839 51.5579 94.6969C51.6579 94.5289 51.7379 94.822 49.4729 89.91C49.4523 89.8663 49.4445 89.8178 49.4502 89.7699C49.4559 89.7221 49.475 89.6768 49.5053 89.6392C49.5355 89.6017 49.5757 89.5734 49.6213 89.5576C49.6668 89.5418 49.7159 89.5392 49.7629 89.55C53.5089 90.383 54.6039 90.6579 54.7059 90.6579C54.8529 90.6579 54.5979 90.849 58.5579 87.188C58.5933 87.1553 58.6371 87.1331 58.6844 87.1241C58.7317 87.115 58.7806 87.1193 58.8255 87.1366C58.8705 87.1539 58.9097 87.1834 58.9387 87.2218C58.9678 87.2602 58.9855 87.306 58.9899 87.3539C59.4989 92.7539 59.4149 92.4479 59.5839 92.5419C63.3599 94.6579 64.6399 95.148 63.9299 95.453ZM60.7829 91.2659L60.4089 87.2249C60.3711 86.8069 60.1778 86.4183 59.8673 86.136C59.5568 85.8536 59.1516 85.698 58.7319 85.6999C57.8129 85.6999 57.6659 86.078 54.3639 89.132L53.9479 89.038C54.204 87.5441 54.6239 86.0829 55.1999 84.6809C59.3399 73.8379 63.4999 69.1129 70.4369 62.137C69.1089 64.765 68.8369 68.7629 69.3239 68.7899C69.4969 69.0129 71.1909 67.9759 73.2649 66.7119C76.6859 64.6059 75.5149 64.9599 74.0499 67.2669C72.7789 69.2499 72.3099 71.1429 72.5699 71.2289C72.6769 71.4999 74.2939 71.051 76.2899 70.813C77.7199 70.622 78.9649 70.6629 79.5819 70.6009C75.1149 72.9509 66.2059 81.0869 60.7829 91.2659Z"></path></g><g id="Group_6"><path id="Vector_31" fill="#fdfdfd" d="M169.63 21.284C168.213 18.784 166.63 18.42 164.102 17.517C160.067 16.074 156.838 15.007 153.257 15.851C142.105 18.479 136.423 34.976 142.165 41.937C144.343 44.579 153.029 47.346 156.095 47.346C166.451 47.346 174.768 30.548 169.63 21.284Z"></path><g id="Group_7"><path id="Vector_32" fill="#000000" d="M170.154 20.9911C168.582 18.0911 166.241 17.7001 164.305 16.9471C161.405 15.9111 157.756 14.6391 154.68 14.9811C140.92 16.9601 135.744 35.9081 141.9 42.5261C143.937 45.1071 154.138 48.5591 157.283 47.8261C168.049 46.3741 175.115 30.0831 170.154 20.9911ZM164.38 23.9001C165.18 24.0461 166.294 24.1701 167.18 24.4001C168.152 24.6491 169.305 25.1361 170.09 25.3801C170.415 27.4572 170.367 29.5757 169.949 31.6361C165.666 31.2721 166.655 31.0161 163.933 30.1141C164.423 28.0815 164.574 25.9819 164.38 23.9001V23.9001ZM169.871 24.2501C166.227 23.9201 166.925 23.6951 164.184 22.6801C163.838 20.7385 162.866 18.9635 161.416 17.6261C160.889 17.2021 159.816 16.7691 163.835 18.2431C166.164 19.1531 168.719 19.4401 169.871 24.2481V24.2501ZM140.606 36.9101C140.164 33.6914 140.546 30.4131 141.716 27.3822C142.886 24.3512 144.806 21.6668 147.296 19.5801C156.296 12.0801 167.812 17.3621 162.14 33.0891C155.763 49.9201 141.945 45.7631 140.606 36.9081V36.9101ZM149.951 45.2651C151.99 45.2223 153.981 44.6484 155.73 43.6001C157.23 44.2081 157.786 43.6461 160.797 45.1881C157.048 47.1681 154.387 46.7001 149.951 45.2631V45.2651ZM161.926 44.5171C159.458 43.8601 160.048 44.4821 156.755 42.8011C158.168 41.5582 159.399 40.1229 160.412 38.5371C162.441 39.0371 161.769 38.2121 166.429 39.9521C165.235 41.7477 163.706 43.2969 161.926 44.5151V44.5171ZM167.052 38.9861C166.252 38.8631 164.964 38.7861 163.969 38.5471C162.974 38.3081 161.795 37.7711 161.029 37.5111C162.163 35.5377 163.043 33.4294 163.65 31.2361C166.175 31.8361 164.367 30.9111 169.721 32.6521C169.142 34.8808 168.243 37.0137 167.052 38.9841V38.9861Z"></path><path id="Vector_33" fill="#000000" d="M147.607 42.7422C152.517 44.4782 157.644 37.7532 159.628 33.4242C162.582 26.8852 162.247 17.9392 155.154 17.7242C148.507 17.5082 144.114 26.8072 144.465 26.9622C144.681 27.0622 146.174 22.7982 150.674 19.7202C151.673 19.0178 152.839 18.5889 154.055 18.4763C155.271 18.3637 156.495 18.5712 157.606 19.0782C166.585 23.7072 153.545 48.6322 145.688 40.6642C140.358 35.5122 145.599 24.4282 144.074 27.6762C141.624 32.8812 142.177 40.8752 147.607 42.7422Z"></path><path id="Vector_34" fill="#000000" d="M148.933 30.873L147.133 32.423L148.822 38.831C149.015 38.673 148.245 39.331 153.672 34.649C153.705 34.6286 153.728 34.597 153.739 34.5603C153.751 34.5235 153.748 34.484 153.732 34.449C153.54 33.739 153.149 32.259 153.132 32.206C152.792 32.521 153.665 31.763 150.122 34.828C149.863 35.05 150.138 34.99 148.933 30.873Z"></path><path id="Vector_35" fill="#000000" d="M149.187 25.6832L149.805 28.0142C149.884 27.9472 151.93 26.1812 152.859 25.3752C152.997 25.2552 152.873 25.2832 153.995 29.3752L155.795 27.8252L154.112 21.4312L149.187 25.6832Z"></path><path id="Vector_36" fill="#000000" d="M150.873 32.0781L152.677 30.5151L152.059 28.1611L150.252 29.7211L150.873 32.0781Z"></path><path id="Vector_37" fill="#000000" d="M156.851 31.8651L156.246 29.5491L154.462 31.0911L155.075 33.4071L156.851 31.8651Z"></path><path id="Vector_38" fill="#000000" d="M147.806 26.8571C145.979 28.4321 146.037 28.3201 146.078 28.4711C146.706 30.8181 146.632 30.7611 146.744 30.6631C147.476 30.0281 148.402 29.2351 148.474 29.1631C147.823 26.6931 147.906 26.7681 147.806 26.8571Z"></path></g></g><g id="Group_8"><path id="Vector_39" fill="#fdfdfd" d="M127.7 34.512C136.319 28.344 131.52 5 118.146 5C114.715 5.26241 111.325 5.91495 108.041 6.945C99.464 10.224 99.797 33.461 112.826 37.545C116.3 38.639 124.974 36.46 127.7 34.512Z"></path><g id="Group_9"><path id="Vector_40" fill="#000000" d="M120.221 4.59202C117.268 3.97702 113.331 4.94402 110.364 5.67902C107.815 6.36202 106.013 6.63102 104.235 9.42702C98.398 18.607 102.588 35.384 113.083 38.249C116.195 39.173 123.63 37.267 127.051 35.63C136.816 30.958 133.318 6.90702 120.221 4.59202ZM110.7 7.02902C115.468 5.80602 114.2 6.15502 113.47 6.65402C111.872 7.8802 110.683 9.56123 110.059 11.476C107.305 12.176 107.888 12.508 104.319 12.432C106.031 8.04602 108.079 7.73002 110.7 7.02902ZM103.934 13.539C107.339 12.867 104.604 13.051 109.681 12.686C109.164 14.8029 108.978 16.9872 109.131 19.161C106.491 19.72 107.298 20.149 103.063 20.032C102.988 17.834 103.284 15.6391 103.937 13.539H103.934ZM103.123 21.083C103.916 20.917 104.967 20.627 105.855 20.513C106.983 20.369 108.436 20.426 109.229 20.332C109.472 22.6512 109.999 24.9317 110.799 27.122C110.018 27.296 108.779 27.71 107.756 27.847C106.766 27.98 105.513 27.915 104.709 27.947C103.856 25.7463 103.323 23.4349 103.126 21.083H103.123ZM105.153 29C109.906 27.785 109.175 28.492 111.241 28.238C111.949 29.9877 112.924 31.6165 114.133 33.066C110.627 34.417 111.383 33.851 108.798 34.248C107.242 32.7623 106.002 30.9772 105.153 29V29ZM109.777 35.067C110.417 34.7977 111.079 34.5803 111.754 34.417C112.871 34.189 115.062 34.132 115.017 33.97C116.532 35.2989 118.41 36.1445 120.41 36.398C114.127 37.746 112.151 36.85 109.777 35.062V35.067ZM130.82 28.627C130.079 31.049 128.738 33.448 126.447 34.501C124.824 35.4369 122.962 35.8767 121.092 35.766C109.083 34.64 105.006 7.74202 117.681 5.73102C126.2 5.33102 134.217 16.738 130.82 28.622V28.627Z"></path><path id="Vector_41" fill="#000000" d="M128.858 18.9639C127.604 14.4419 131.43 26.8159 125.452 31.9639C119.019 37.6879 112.552 24.9959 112.979 16.2509C113.497 6.63692 122.579 4.26392 127.614 15.7259C128.284 17.2839 128.514 18.2049 128.589 18.1849C128.485 17.2979 128.265 16.4284 127.934 15.5989C124.447 6.15392 117.123 5.67292 114.115 10.0339C110.084 15.6809 112.358 26.2149 117.56 32.0629C123.261 38.4539 131.811 29.6839 128.858 18.9639Z"></path><path id="Vector_42" fill="#000000" d="M119.439 21.132C119.944 21.347 120.483 21.4748 121.031 21.51C122.403 21.51 123.731 19.872 124.282 18.787C124.427 18.504 124.458 18.775 123.899 17.419C122.82 14.8374 121.506 12.3604 119.974 10.019C118.737 13.1814 117.784 16.4476 117.127 19.779C117.313 20.287 117.487 20.524 119.439 21.132ZM120.128 12.186C121.391 14.1943 122.455 16.3219 123.302 18.538C121.766 21.202 120.702 20.501 119.73 20.195C119.189 20.0418 118.662 19.8411 118.156 19.595C118.627 17.0796 119.287 14.603 120.128 12.186V12.186Z"></path><path id="Vector_43" fill="#000000" d="M124.915 19.916C120.737 23.283 123.759 23.852 116.992 21.326C117.272 22.5107 117.768 23.6337 118.455 24.639C118.942 25.464 121.996 30.528 122.955 30.574C124.8 30.524 124.749 21.956 124.915 19.916ZM123.787 23.427C123.524 26.44 123.514 28.064 122.87 29.36C121.546 27.7155 120.352 25.9706 119.299 24.141C117.948 21.841 119.025 23.924 121.638 23.849C123.6 23.8 124.007 20.9 123.787 23.427Z"></path></g></g><g id="Group_10"><path id="Vector_44" fill="#fdfdfd" d="M88.9269 41.137C98.9749 32.456 89.5339 5.08301 73.0529 5.08301C68.2199 5.08301 59.0659 9.63201 58.5269 9.95401C54.6399 12.266 53.4269 17.821 53.4169 22.292C53.3719 37.47 65.1109 49.34 74.0999 47.673C78.9459 46.762 86.2659 43.433 88.9269 41.137Z"></path><g id="Group_11"><path id="Vector_45" fill="#000000" d="M77.4459 5.20006C72.1089 3.24206 66.5569 5.67006 61.2599 8.00006C58.6539 9.20606 56.2049 9.83806 54.3659 14.0511C48.5059 27.8621 60.0219 52.0371 76.3789 47.7401C80.2179 46.6851 86.3059 44.1621 89.5599 41.3461C98.3479 33.7421 92.0349 9.30006 77.4459 5.20006ZM58.3609 11.5391C59.4509 10.6011 64.9399 8.30906 66.1839 7.82306C63.9792 9.77229 62.5438 12.4455 62.1369 15.3601C58.8749 16.8211 59.6239 17.1341 55.1289 17.8121C55.4743 15.4184 56.6123 13.2097 58.3609 11.5391V11.5391ZM54.8859 19.2881C58.9299 17.7391 55.5939 18.5381 61.9359 16.9621C61.7504 19.738 61.9912 22.526 62.6499 25.2291C59.4499 26.5101 60.5499 26.8711 55.2059 27.6471C54.6314 24.8984 54.5232 22.0726 54.8859 19.2881V19.2881ZM55.5089 28.9571C56.4709 28.5751 57.7299 27.9811 58.8229 27.6451C60.2099 27.2181 62.0519 26.9721 63.0229 26.6821C63.8344 29.5464 64.9944 32.3003 66.4769 34.8821C65.5319 35.2701 64.0639 36.0611 62.8069 36.4561C61.5889 36.8401 59.9979 37.0321 58.9939 37.2451C57.4428 34.6628 56.2693 31.8718 55.5089 28.9571V28.9571ZM59.7839 38.4701C60.8318 37.9476 61.9081 37.4846 63.0079 37.0831C64.4579 36.6271 66.4079 36.4481 67.2759 36.1831C68.5481 38.2304 70.131 40.0674 71.9679 41.6281C67.8429 44.0951 68.6779 43.2141 65.5129 44.2771C63.2311 42.7476 61.2824 40.7723 59.7839 38.4701V38.4701ZM66.9229 45.1001C67.67 44.6215 68.4546 44.2041 69.2689 43.8521C70.7079 43.2891 73.3689 42.7811 73.2769 42.5781C75.4712 43.9292 78.0232 44.5842 80.5969 44.4571C72.9509 47.5381 70.2779 46.8181 66.9229 45.1001ZM87.7719 40.7561C85.5839 42.2561 83.9389 43.3151 81.3109 43.5141C75.7109 43.9511 72.0109 41.1251 68.8359 36.5421C57.3749 19.9001 63.5469 -0.348942 80.2839 8.10006C94.0439 16.1291 94.8899 35.8681 87.7719 40.7511V40.7561Z"></path><path id="Vector_46" fill="#000000" d="M87.4218 20.684C86.3768 18.473 87.4648 21.415 87.9098 23.164C89.0828 27.918 89.0598 34.021 85.9678 37.778C79.1218 46.383 68.2218 31.832 66.8518 20.726C65.4188 8.58198 76.2758 3.48398 85.1518 16.877C86.3338 18.691 86.8258 19.8 86.9138 19.759C86.5909 18.665 86.1245 17.6185 85.5268 16.647C79.0748 5.50798 69.7568 6.52998 66.9268 12.656C61.8558 23.549 72.8558 40.283 79.8588 41.365C87.5298 42.7 92.2338 30.881 87.4218 20.684Z"></path><path id="Vector_47" fill="#000000" d="M79.309 23.0299C79.9537 22.4337 80.4194 21.6693 80.6535 20.8229C80.8877 19.9765 80.8812 19.0815 80.6347 18.2386C80.3881 17.3957 79.9113 16.6383 79.2579 16.0515C78.6045 15.4647 77.8004 15.0718 76.936 14.9169C76.779 13.3359 75.742 12.4049 75.468 12.5969C75.202 12.7709 75.468 13.6139 75.729 14.5899C75.837 14.9739 75.946 14.6899 74.229 14.8499C73.7 12.1579 72.41 12.3419 73.115 15.0119C72.6649 15.182 72.2269 15.3825 71.804 15.6119C72.298 17.5699 74.004 21.6579 74.834 25.0119C75.664 28.3659 76.443 32.7899 77.178 34.7119C78.669 34.1599 78.336 34.1669 78.549 34.7899C79.114 36.4529 80.599 37.3299 79.618 34.4259C79.547 34.2149 79.529 34.2559 79.655 34.2419C81.455 34.0419 81.149 33.6789 81.287 34.1299C82.201 37.0559 82.96 35.6969 82.367 33.7999C82.231 33.3519 82.188 33.4799 82.402 33.3419C86.381 30.8519 83.067 24.4159 79.309 23.0299ZM74.368 16.9299C75.747 16.5099 77.034 16.1669 78.245 16.8019C78.8339 17.102 79.297 17.6016 79.5516 18.2116C79.8062 18.8216 79.8358 19.5022 79.635 20.1319C78.963 22.0559 76.655 22.2449 75.322 22.5759C74.945 20.6059 74.646 18.5389 74.368 16.9279V16.9299ZM78.535 32.0999C77.4791 29.812 76.5859 27.4525 75.862 25.0389C76.9381 24.6493 78.1 24.5601 79.223 24.7809C83.245 26.0289 85.87 32.7819 78.535 32.0999Z"></path></g></g><g id="Group_12"><path id="Vector_48" fill="#fdfdfd" d="M26.6101 28.671C23.1831 29.82 15.8001 34.937 14.6001 36.442C6.80014 46.181 20.4901 75.9 38.2761 75.523C41.9831 75.445 49.6341 70.372 53.2251 66.708C64.0541 55.655 44.6001 22.637 26.6101 28.671Z"></path><path id="Vector_49" fill="#000000" d="M30.9301 54.9999C33.5001 58.7299 40.1621 65.7199 44.6621 66.0339C47.3621 66.2219 49.2741 64.5159 50.3531 62.0749C54.3851 52.9549 44.6531 39.1449 47.5171 43.1489C51.9911 49.3939 54.7761 60.9889 48.8481 65.8319C46.8171 67.4899 43.6481 67.7869 40.2351 65.6399C25.8061 56.5659 18.6891 34.8759 29.6731 31.5859C38.3071 28.9999 47.1701 41.9699 46.7821 42.2339C46.5131 42.4179 43.2441 36.6429 36.4611 33.2279C32.5951 31.2809 28.7151 32.3279 26.9931 34.5089C23.1171 39.4169 27.0081 49.3099 30.9301 54.9999Z"></path><path id="Vector_50" fill="#000000" d="M25.338 28.5281C21.8621 30.3087 18.5493 32.3914 15.438 34.7521C5.57303 42.7881 16.853 72.0991 35.096 75.9521C36.8182 76.2612 38.5861 76.2047 40.285 75.7861C43.101 74.9091 47.863 72.3191 53.028 67.7561C53.8897 66.968 54.6226 66.0499 55.2 65.0351C62.727 51.9501 43.2 20.7561 25.338 28.5281ZM18.5 34.9091C19.956 33.8761 21.385 32.8661 22.825 31.9721C20.9092 34.62 20.045 37.8851 20.4 41.1341C17.419 43.2491 18.156 43.4541 13.878 44.8651C13.614 38.1271 16.061 36.6501 18.5 34.9091ZM13.983 46.4281C14.889 45.8691 16.142 44.9101 17.256 44.3051C18.273 43.7531 19.604 43.2671 20.556 42.8381C21.0408 46.0011 21.9763 49.0784 23.334 51.9761C20.587 53.7581 21.368 54.1271 16.402 55.7201C15.1254 52.7646 14.3096 49.6308 13.983 46.4281V46.4281ZM17 57.0301C17.885 56.4711 19.008 55.6621 20.019 55.1381C21.319 54.4661 23.107 53.9021 24.041 53.4381C25.5713 56.5128 27.4445 59.4045 29.625 62.0581C28.731 62.5941 27.409 63.6211 26.234 64.2401C25.107 64.8331 23.594 65.3251 22.634 65.7481C20.3897 63.0959 18.4961 60.1658 17 57.0301V57.0301ZM23.658 66.8931C28.219 63.4641 27.814 64.5851 30.697 63.3111C32.5014 65.3935 34.5966 67.2048 36.918 68.6891C33.409 71.8941 34.078 70.8731 31.01 72.5721C28.2265 71.152 25.7317 69.2262 23.653 66.8931H23.658ZM37.658 74.1721C35.9157 74.1597 34.1891 73.8398 32.558 73.2271C35.858 70.1761 36.766 70.7571 38.45 69.5081C41.0032 70.6807 43.8663 70.9998 46.615 70.4181C44.439 71.8371 40.227 74.2741 37.648 74.1721H37.658ZM53.675 64.1571C53.1715 64.9939 52.5486 65.7529 51.826 66.4101C49.726 68.2231 49.091 68.9651 46.526 69.4501C40.593 70.6021 36.286 67.5421 32.172 63.1781C23.691 53.8271 15.858 35.8441 26.838 29.8891C42.191 23.8881 61.161 51.5471 53.675 64.1571Z"></path><g id="Group_13"><path id="Vector_51" fill="#000000" d="M41.3139 50.46C37.3359 53.205 37.6399 53.184 37.1319 52.92C33.5239 51.046 33.5689 51.181 33.4679 50.891C33.3669 50.601 32.8679 51.103 40.8569 45.557C41.1569 45.35 41.1359 45.45 44.7919 47.311C45.6149 47.73 45.1459 47.814 41.3139 50.46Z"></path><path id="Vector_52" fill="#000000" d="M31.98 48.7351C31.753 48.5431 31.863 48.7351 31.38 44.5741C31.314 44.0061 30.872 44.4741 38.832 39.0311C39.371 38.6631 39.394 39.8771 39.456 40.4361C39.765 43.2361 39.898 43.5231 39.583 43.7361C31.58 49.2001 32.2 48.9211 31.98 48.7351Z"></path><path id="Vector_53" fill="#000000" d="M46.594 49.7822C46.81 49.9822 46.731 49.8412 47.194 54.0222C47.245 54.4802 47.716 54.0102 39.703 59.4992C39.45 59.6722 39.258 59.3992 39.224 59.0902C38.795 55.1582 38.669 54.9902 38.977 54.7832C47.037 49.2352 46.405 49.6102 46.594 49.7822Z"></path></g></g><g id="Group_14"><path id="Vector_54" fill="#fdfdfd" d="M185.476 132.244L181.749 130.598C179.062 136.456 158.949 183.116 158.455 183.798C158.228 183.364 151.439 156.823 151.429 156.623C151.429 156.598 151.35 157.096 151.346 157.06C151.322 157.075 151.361 156.572 151.31 156.621C146.058 163.354 145.602 164.137 142.652 168.184C142.331 167.009 138.56 153.533 138.529 153.375C136.929 154.231 125.152 164.22 124.768 163.833C124.346 163.409 130.568 156.333 140.006 148.733C140.263 149.57 141.554 153.706 141.554 153.706C144.242 161.621 143.833 160.882 144.196 160.183L153.07 148.11L159.377 172.262C159.377 172.262 176.561 132.698 178.234 129.05L174.548 127.423C174.351 127.336 174.182 127.194 174.061 127.015C173.941 126.836 173.874 126.626 173.868 126.41C173.862 126.194 173.918 125.981 174.028 125.796C174.139 125.61 174.3 125.46 174.492 125.362L183.121 120.974C183.274 120.896 183.442 120.854 183.614 120.85C183.785 120.847 183.956 120.882 184.112 120.953C184.268 121.024 184.406 121.13 184.515 121.262C184.625 121.394 184.703 121.548 184.745 121.715L187.045 130.927C187.096 131.134 187.088 131.351 187.022 131.554C186.956 131.757 186.834 131.937 186.671 132.074C186.507 132.211 186.309 132.3 186.098 132.33C185.886 132.36 185.671 132.33 185.476 132.244Z"></path><path id="Vector_55" fill="#000000" d="M183.637 120.847C184.837 120.847 184.588 121.09 187.044 130.924C187.096 131.131 187.088 131.349 187.022 131.552C186.957 131.755 186.835 131.936 186.672 132.073C186.508 132.211 186.31 132.3 186.098 132.33C185.887 132.36 185.671 132.33 185.476 132.244L181.749 130.598C179.063 136.456 158.949 183.116 158.455 183.798C158.195 183.298 151.468 156.621 151.31 156.621C144.571 165.376 147.395 161.678 142.652 168.184C142.331 167.009 138.56 153.534 138.529 153.375C137.058 154.162 125.129 164.195 124.768 163.833C124 163.064 134.12 153.707 135.948 152.087C136.133 151.923 139.001 149.543 140.006 148.734C140.263 149.571 141.554 153.707 141.554 153.707C144.244 161.632 143.833 160.882 144.196 160.184L153.07 148.111L159.377 172.263C159.377 172.263 176.561 132.699 178.234 129.051L174.548 127.424C174.35 127.337 174.182 127.195 174.061 127.016C173.941 126.837 173.874 126.627 173.868 126.411C173.862 126.195 173.918 125.982 174.028 125.797C174.139 125.611 174.299 125.461 174.492 125.363C183.874 120.589 183.25 120.847 183.637 120.847ZM183.637 119.168C182.682 119.168 182.907 119.197 173.731 123.863C173.255 124.105 172.858 124.476 172.586 124.935C172.313 125.393 172.176 125.92 172.19 126.453C172.205 126.986 172.37 127.504 172.668 127.947C172.965 128.39 173.382 128.74 173.87 128.955L176 129.896C174.592 132.984 161.652 162.783 159.78 167.112L153.8 144.281L144.436 156.97C142.225 150.332 143.036 152.878 140.883 145.87C135.887 149.753 131.172 153.987 126.776 158.538C123.383 162.163 122.234 163.663 123.576 165.014C125.452 166.902 127.555 163.835 137.502 156.174C137.702 156.874 141.952 171.99 141.952 171.99L150.601 160.253C157.692 187.837 156.163 183.038 158.218 186.965C160.387 183.994 160.623 183.915 162.062 180.089C163.211 177.03 182.418 133.173 182.585 132.804C184.865 133.811 185.162 134.023 185.938 134.023C186.366 134.022 186.788 133.924 187.172 133.736C187.557 133.548 187.893 133.275 188.156 132.938C188.42 132.601 188.603 132.208 188.692 131.79C188.781 131.371 188.774 130.938 188.671 130.523L186.371 121.312C186.221 120.7 185.869 120.157 185.374 119.768C184.878 119.38 184.267 119.168 183.637 119.168V119.168Z"></path></g></g></svg>